<?xml version="1.0" encoding="utf-8"?>
<!-- Generator: Adobe Illustrator 25.2.0, SVG Export Plug-In . SVG Version: 6.00 Build 0)  -->
<svg version="1.1" id="レイヤー_1" xmlns="http://www.w3.org/2000/svg" xmlns:xlink="http://www.w3.org/1999/xlink" x="0px"
	 y="0px" viewBox="0 0 300 105" style="enable-background:new 0 0 300 105;" xml:space="preserve">
<polygon points="63.5,6.4 63.5,0 57.8,0 57.8,6.4 "/>
<path d="M232.8,97.2h-0.4l-28.1-49.9L229.5,0h-7.6l-23.6,45.7h-1.4V0h-5.6v95.9L161.4,0h-4.7l-30,97.2l-5.6,0L135,0h-6.2l-11.2,82.3
	L106,0h-7.1L87.1,82.3L75.9,0h-6.1l13.8,97.1l-7.1,0l-12.8-0.3V11.9l-5.6,0v84.8L7,96.6L6.7,9.9l34,83.3h5.5V0h-5.5l-0.3,79.7L7.5,0
	h-6v102.2l297.5,0.9L267.1,0h-4.3L232.8,97.2z M90.4,97.1l12-82l12,82.1L90.4,97.1z M159,11.9l12.4,40.5h-24.9L159,11.9z
	 M132.7,97.2l12.6-40.9h27.6l12,41.1L132.7,97.2z M196.9,97.2V50.1h2.5l27.1,47.1H196.9z M290.4,97.2h-51.6L251.2,57h27.6
	L290.4,97.2z M252.5,53L265,12.6L277.4,53H252.5z"/>
</svg>
