<?xml version="1.0" encoding="utf-8"?>
<!-- Generator: Adobe Illustrator 25.2.1, SVG Export Plug-In . SVG Version: 6.00 Build 0)  -->
<svg version="1.1" id="レイヤー_1" xmlns="http://www.w3.org/2000/svg" xmlns:xlink="http://www.w3.org/1999/xlink" x="0px"
	 y="0px" viewBox="0 0 200 100" style="enable-background:new 0 0 200 100;" xml:space="preserve">
<style type="text/css">
	.st0{fill:#FFFFFF;}
</style>
<g>
	<g>
		<path class="st0" d="M34.5,27.2c0-3.6-6.1-2.5-5.9-4.6c0.1-0.9,0.9-1.4,2.3-1.4c1.4,0,2.1,0.6,2.3,0.8l1-1
			c-0.3-0.4-1.7-1.2-3.4-1.2c-2.2,0-3.3,0.9-3.6,2.2c-1.1,4.3,6.1,2.9,5.8,5.4c-0.1,0.8-0.9,1.4-2.4,1.4s-2.2-0.7-2.6-1l-1.1,1
			c0.9,1,2.4,1.4,3.6,1.4C31.8,30.1,34.5,29.7,34.5,27.2z M23.2,18h1.5v-2.9h-1.5V18z M20.9,19.5L20.9,19.5c0-3-2.3-4.4-4.5-4.4
			h-5.9v15H12v-6.1h3.4l4,6.1h1.9l-4-6.2C19.1,23.5,20.9,22.2,20.9,19.5z M12,22.4v-5.8h4.3c1.7,0,2.9,1.2,2.9,2.9v0
			c0,1.7-1.2,2.9-2.9,2.9H12z M23.2,30h1.5V19.9h-1.5V30z M68,30.2c1.8,0,3-1.1,3.8-2.1V30h1.4V19.9h-1.4v1.7
			c-0.8-1.1-2-1.9-3.9-1.9c-3,0-5.1,2.6-5.1,5.2C62.8,27.5,64.7,30.2,68,30.2z M67.8,21.2c2,0,3.7,1.7,3.7,3.8
			c0,2.1-1.6,3.8-3.7,3.8c-2,0-3.7-1.7-3.7-3.8C64.1,22.9,65.8,21.2,67.8,21.2z M87.6,30h1.5v-8.7h2.1v-1.5h-2.1v-4.8h-1.5v4.8h-1.7
			v1.5h1.7V30z M98,30.2c2.2,0,3.7-1.3,4.2-1.8l-1.1-1c-0.2,0.2-1.4,1.4-3.2,1.4c-1.8,0-3.3-1.3-3.6-3.1h8.4V25
			c0-3.1-2.1-5.3-4.9-5.3c-3.1,0-5.1,2.3-5.1,5.3S95.3,30.2,98,30.2z M97.9,21.1c1.3,0,3,0.5,3.4,3.2h-6.9
			C94.6,22.4,95.9,21.1,97.9,21.1z M79.9,19.7c-1.5,0-2.4,0.7-3.1,1.6v-1.5h-1.5V30h1.5v-5.8c0-0.6,0.4-3.1,3-3.1
			c2.1,0,2.9,1.9,2.9,3c0,1.1,0,5.9,0,5.9h1.5v-5.9C84.2,22,82.7,19.7,79.9,19.7z M53.9,24.9c0-2.9-2.4-5.2-5.3-5.2
			c-2.9,0-5.2,2.3-5.2,5.2c0,2.9,2.3,5.2,5.2,5.2C51.6,30.2,53.9,27.8,53.9,24.9z M44.9,24.9c0-2.1,1.7-3.8,3.8-3.8
			c2.1,0,3.8,1.7,3.8,3.8c0,2.1-1.7,3.8-3.8,3.8C46.6,28.7,44.9,27,44.9,24.9z M57.6,24.4c0.1-0.4,0.9-2.8,3.2-3.1l0.8-1.5h-0.2
			c-1.7,0-2.9,0.8-3.8,1.9v-1.7h-1.5V30h1.5V24.4z M39.7,15.1h-1.5v4.8h-1.7v1.5h1.7V30h1.5v-8.7h2.1v-1.5h-2.1V15.1z M32.6,83.6
			h4.2V42.7h-4.2V83.6z M59.6,42.7H45.8v40.9h13.4c6.2,0,11.3-1.7,15-4.9c2-1.8,3.6-3.9,4.7-6.5c1.1-2.7,1.6-5.7,1.6-9.1
			c0-5.5-1.9-10.6-5.3-14.3C71.4,44.8,66,42.7,59.6,42.7z M59.2,79.5H50V46.8h9.6c12.4,0,16.7,8.8,16.7,16.3
			C76.3,77.4,65.6,79.5,59.2,79.5z M135.6,42.7l-18.8,40.9h4.5l4.6-9.9h22.5l4.5,9.9h4.5l-18.8-40.9H135.6z M127.7,69.7l9.4-20.5
			l9.4,20.5H127.7z M166.7,79.5V42.7h-2.3l1-3.2c2.2,0.4,4.3,0.1,7.7-1.5c0.4,0.3,1.1,0.4,2.8,1.2c2.8,1.3,8.3,2.2,9.7,2.2
			c0.8-0.1-8.8-3.5-11.3-5.4c-1.3-1-2-4.1-2.7-5.3c-0.6-1.3-2.3-3.8-4.8-5.3c-2.6-1.6-3.4-2-6.2-2.8c-0.9-1-2.2-1.9-3.8-1.9
			c-2.4,0-3.2,0.9-4.3,2.7l-2.8,0.3l2.3,1.9c0.5,1.2,1.8,5.4,3.5,7.8c1.5,2.2,3.5,4.3,7.5,5.5c0.5,0.2,1,0.3,1.5,0.4l-1,3.3h-1.2
			v40.9h27.9v-4.1H166.7z M91.2,65.5h19.7v-4.1H91.2V46.8h21v-4.1H86.9v40.9h25.8v-4.1H91.2V65.5z"/>
	</g>
</g>
</svg>
